<?xml version="1.0" encoding="UTF-8" standalone="no"?>
<svg
   width="100.00016mm"
   height="47.129929mm"
   viewBox="-10 -50 100.00016 47.129929"
   version="1.1"
   id="svg178"
   sodipodi:docname="ui_pcb_edge.svg"
   inkscape:version="1.2.2 (b0a8486541, 2022-12-01)"
   xmlns:inkscape="http://www.inkscape.org/namespaces/inkscape"
   xmlns:sodipodi="http://sodipodi.sourceforge.net/DTD/sodipodi-0.dtd"
   xmlns="http://www.w3.org/2000/svg"
   xmlns:svg="http://www.w3.org/2000/svg"
   xmlns:rdf="http://www.w3.org/1999/02/22-rdf-syntax-ns#"
   xmlns:cc="http://creativecommons.org/ns#"
   xmlns:dc="http://purl.org/dc/elements/1.1/">
  <defs
     id="defs182" />
  <sodipodi:namedview
     id="namedview180"
     pagecolor="#505050"
     bordercolor="#eeeeee"
     borderopacity="1"
     inkscape:showpageshadow="0"
     inkscape:pageopacity="0"
     inkscape:pagecheckerboard="0"
     inkscape:deskcolor="#505050"
     inkscape:document-units="mm"
     showgrid="false"
     inkscape:zoom="1.8712974"
     inkscape:cx="84.700592"
     inkscape:cy="83.631815"
     inkscape:window-width="1884"
     inkscape:window-height="999"
     inkscape:window-x="0"
     inkscape:window-y="0"
     inkscape:window-maximized="0"
     inkscape:current-layer="svg178" />
  <title
     id="title174">OpenSCAD Model</title>
  <path
     id="path176"
     style="fill:#ffffff;stroke-width:0.1;stroke-dasharray:none"
     d="m 5.000118,-50 -0.942061,0.02997 -0.937928,0.08837 -0.930692,0.147277 -0.919841,0.205156 -0.904854,0.263033 -0.886768,0.318843 -0.864546,0.373621 -0.839742,0.427364 -0.810804,0.479041 -0.779797,0.529166 -0.744141,0.577226 -0.706933,0.622184 -0.666626,0.665593 -0.623218,0.706417 -0.577226,0.743623 -0.529683,0.778248 -0.479557,0.810286 -0.427881,0.838709 -0.374138,0.864029 -0.31936,0.885735 -0.263033,0.90382 -0.205672,0.918807 -0.104387,0.657325 C -9.91462,-36.688517 -10,-35.619034 -10,-35.015901 v 2.145605 l 0.02946,1.884123 0.08888,1.876371 0.147278,1.861385 0.205672,1.839164 0.263033,1.809712 0.31936,1.77301 0.374138,1.72962 0.427881,1.67948 0.479557,1.62212 0.529683,1.55856 0.577226,1.48932 0.623218,1.41387 0.666626,1.33273 0.706933,1.24644 0.744141,1.15496 0.779797,1.05937 0.810804,0.95912 0.839742,0.85576 0.864546,0.74827 0.886768,0.63872 0.904854,0.52555 0.919841,0.41135 0.930692,0.29455 0.937928,0.17777 0.942061,0.0589 h 69.99986 l 0.94206,-0.0589 0.93793,-0.17777 0.93069,-0.29455 0.91984,-0.41135 0.90486,-0.52555 0.88676,-0.63872 0.86455,-0.74827 0.83974,-0.85576 0.81132,-0.95912 0.77928,-1.05937 0.74466,-1.15496 0.70642,-1.24644 0.66662,-1.33273 0.62322,-1.41387 0.57723,-1.48932 0.52968,-1.55856 0.48007,-1.62212 0.42737,-1.67948 0.37465,-1.72962 0.31885,-1.77301 0.26303,-1.809712 0.20567,-1.839164 0.14728,-1.861385 0.0889,-1.876371 0.0295,-1.884123 v -2.145605 c 0,-0.665256 -0.0858,-1.67502 -0.16125,-2.150254 l -0.10439,-0.657324 -0.20567,-0.918807 -0.26303,-0.903821 -0.31885,-0.885734 -0.37465,-0.86403 -0.42737,-0.838708 -0.48007,-0.810287 -0.52968,-0.778247 -0.57723,-0.743624 -0.62322,-0.706417 -0.66662,-0.665592 -0.70642,-0.622184 -0.74466,-0.577226 -0.77928,-0.529167 -0.81132,-0.47904 -0.83974,-0.427364 -0.86455,-0.373621 -0.88676,-0.318844 -0.90486,-0.263033 -0.91984,-0.205155 -0.93069,-0.147278 -0.93793,-0.08837 -0.94206,-0.02997 z"
     sodipodi:nodetypes="cccccccccccccccccccccccssccccccccccccccccccccccccccccccccccccccccccccccccccccsscccccccccccccccccccccccc" />
  <metadata
     id="metadata1622">
    <rdf:RDF>
      <cc:Work
         rdf:about="">
        <dc:title>OpenSCAD Model</dc:title>
      </cc:Work>
    </rdf:RDF>
  </metadata>
</svg>
