999
"DXF R12 Output" (www.mydxf.blogspot.com)
 0 
SECTION
 2 
HEADER
 9 
$ACADVER
 1 
AC1009
 9 
$EXTMIN
 10 
 0 
 20 
 0 
 9 
$EXTMAX
 10 
 8.5 
 20 
 11 
 0 
ENDSEC
 0 
SECTION
 2 
ENTITIES
0
POLYLINE
8
Layer 1
62
164
70
0
10
0.000000
20
0.000000
66
1
0
VERTEX
8
Layer 1
10
89.999970
20
345.889480
70
0
0
VERTEX
8
Layer 1
10
66.766900
20
345.849680
70
0
0
VERTEX
8
Layer 1
10
50.417362
20
344.776540
70
0
0
VERTEX
8
Layer 1
10
25.736762
20
342.113590
70
0
0
VERTEX
8
Layer 1
10
11.147282
20
340.245960
70
0
0
VERTEX
8
Layer 1
10
6.022952
20
337.662630
70
0
0
VERTEX
8
Layer 1
10
2.346152
20
333.807110
70
0
0
VERTEX
8
Layer 1
10
0.429402
20
328.720050
70
0
0
VERTEX
8
Layer 1
10
-0.000028
20
319.420049
70
0
0
VERTEX
8
Layer 1
10
0.703822
20
302.132033
70
0
0
VERTEX
8
Layer 1
10
1.798992
20
286.989454
70
0
0
VERTEX
8
Layer 1
10
3.910542
20
272.283920
70
0
0
VERTEX
8
Layer 1
10
5.162412
20
262.586680
70
0
0
VERTEX
8
Layer 1
10
8.447902
20
245.496870
70
0
0
VERTEX
8
Layer 1
10
12.359312
20
228.486660
70
0
0
VERTEX
8
Layer 1
10
20.573492
20
202.374650
70
0
0
VERTEX
8
Layer 1
10
27.301162
20
184.608930
70
0
0
VERTEX
8
Layer 1
10
35.045242
20
166.605210
70
0
0
VERTEX
8
Layer 1
10
48.618342
20
142.282030
70
0
0
VERTEX
8
Layer 1
10
64.772230
20
118.872790
70
0
0
VERTEX
8
Layer 1
10
64.537600
20
32.629210
70
0
0
VERTEX
8
Layer 1
10
62.386240
20
32.629210
70
0
0
VERTEX
8
Layer 1
10
62.347240
20
-0.000430
70
0
0
VERTEX
8
Layer 1
10
88.592230
20
0.158720
70
0
0
VERTEX
8
Layer 1
10
89.999930
20
0.158720
70
0
0
VERTEX
8
Layer 1
10
89.999970
20
345.889480
70
0
0
SEQEND
8
Layer 1
 0 
ENDSEC
 0 
EOF