<?xml version="1.0" standalone="no"?>
<!DOCTYPE svg PUBLIC "-//W3C//DTD SVG 1.1//EN" "http://www.w3.org/Graphics/SVG/1.1/DTD/svg11.dtd">
<svg width="300mm" height="100mm" viewBox="-150 -50 300 100" xmlns="http://www.w3.org/2000/svg" version="1.1">
<title>OpenSCAD Model</title>
<path d="
M 135.736,49.9819 L 136.47,49.9278 L 137.201,49.8376 L 137.926,49.7118 L 138.645,49.5505 L 139.354,49.3541
 L 140.053,49.1232 L 140.74,48.8582 L 141.413,48.5598 L 142.071,48.2288 L 142.712,47.8659 L 143.334,47.472
 L 143.935,47.0481 L 144.516,46.5952 L 145.073,46.1143 L 145.607,45.6066 L 146.114,45.0734 L 146.595,44.5159
 L 147.048,43.9355 L 147.472,43.3335 L 147.866,42.7115 L 148.229,42.071 L 148.56,41.4133 L 148.858,40.7402
 L 149.123,40.0533 L 149.354,39.3543 L 149.55,38.6447 L 149.712,37.9263 L 149.838,37.201 L 149.928,36.4702
 L 149.982,35.736 L 150,35 L 150,-35 L 149.982,-35.736 L 149.928,-36.4702 L 149.838,-37.201
 L 149.712,-37.9263 L 149.55,-38.6447 L 149.354,-39.3543 L 149.123,-40.0533 L 148.858,-40.7402 L 148.56,-41.4133
 L 148.229,-42.0709 L 147.866,-42.7115 L 147.472,-43.3335 L 147.048,-43.9355 L 146.595,-44.5159 L 146.114,-45.0734
 L 145.607,-45.6066 L 145.073,-46.1143 L 144.516,-46.5952 L 143.935,-47.0481 L 143.334,-47.472 L 142.712,-47.8659
 L 142.071,-48.2288 L 141.413,-48.5598 L 140.74,-48.8582 L 140.053,-49.1232 L 139.354,-49.3541 L 138.645,-49.5505
 L 137.926,-49.7118 L 137.201,-49.8376 L 136.47,-49.9278 L 135.736,-49.9819 L 135,-50 L -135,-50
 L -135.736,-49.9819 L -136.47,-49.9278 L -137.201,-49.8376 L -137.926,-49.7118 L -138.645,-49.5505 L -139.354,-49.3541
 L -140.053,-49.1232 L -140.74,-48.8582 L -141.413,-48.5598 L -142.071,-48.2288 L -142.712,-47.8659 L -143.334,-47.472
 L -143.935,-47.0481 L -144.516,-46.5952 L -145.073,-46.1143 L -145.607,-45.6066 L -146.114,-45.0734 L -146.595,-44.5159
 L -147.048,-43.9355 L -147.472,-43.3335 L -147.866,-42.7115 L -148.229,-42.0709 L -148.56,-41.4133 L -148.858,-40.7402
 L -149.123,-40.0533 L -149.354,-39.3543 L -149.55,-38.6447 L -149.712,-37.9263 L -149.838,-37.201 L -149.928,-36.4702
 L -149.982,-35.736 L -150,-35 L -150,35 L -149.982,35.736 L -149.928,36.4702 L -149.838,37.201
 L -149.712,37.9263 L -149.55,38.6447 L -149.354,39.3543 L -149.123,40.0533 L -148.858,40.7402 L -148.56,41.4133
 L -148.229,42.071 L -147.866,42.7115 L -147.472,43.3335 L -147.048,43.9355 L -146.595,44.5159 L -146.114,45.0734
 L -145.607,45.6066 L -145.073,46.1143 L -144.516,46.5952 L -143.935,47.0481 L -143.334,47.472 L -142.712,47.8659
 L -142.071,48.2288 L -141.413,48.5598 L -140.74,48.8582 L -140.053,49.1232 L -139.354,49.3541 L -138.645,49.5505
 L -137.926,49.7118 L -137.201,49.8376 L -136.47,49.9278 L -135.736,49.9819 L -135,50 L 135,50
 z
M -0.128799,-37.3782 L -0.257294,-37.3876 L -0.385162,-37.4034 L -0.5121,-37.4254 L -0.637817,-37.4537 L -0.761993,-37.488
 L -0.884323,-37.5284 L -1.00453,-37.5748 L -1.12233,-37.627 L -1.23741,-37.685 L -1.34952,-37.7485 L -1.45836,-37.8174
 L -1.56371,-37.8916 L -1.66527,-37.9708 L -1.76283,-38.055 L -1.85614,-38.1438 L -1.94499,-38.2372 L -2.02914,-38.3347
 L -2.10841,-38.4363 L -2.1826,-38.5416 L -2.25153,-38.6505 L -2.31503,-38.7626 L -2.37297,-38.8777 L -2.42517,-38.9955
 L -2.47154,-39.1157 L -2.51196,-39.238 L -2.54633,-39.3622 L -2.57455,-39.4879 L -2.59659,-39.6148 L -2.61235,-39.7427
 L -2.62183,-39.8712 L -2.625,-40 L -2.62183,-40.1288 L -2.61235,-40.2573 L -2.59659,-40.3852 L -2.57455,-40.5121
 L -2.54633,-40.6378 L -2.51196,-40.762 L -2.47154,-40.8843 L -2.42517,-41.0045 L -2.37297,-41.1223 L -2.31503,-41.2374
 L -2.25153,-41.3495 L -2.1826,-41.4584 L -2.10841,-41.5637 L -2.02914,-41.6653 L -1.94499,-41.7628 L -1.85614,-41.8562
 L -1.76283,-41.945 L -1.66527,-42.0291 L -1.56371,-42.1084 L -1.45836,-42.1826 L -1.34952,-42.2515 L -1.23741,-42.315
 L -1.12233,-42.373 L -1.00453,-42.4252 L -0.884323,-42.4715 L -0.761993,-42.512 L -0.637817,-42.5463 L -0.5121,-42.5746
 L -0.385162,-42.5966 L -0.257294,-42.6124 L -0.128799,-42.6218 L 0,-42.625 L 0.128799,-42.6218 L 0.257294,-42.6124
 L 0.385162,-42.5966 L 0.5121,-42.5746 L 0.637817,-42.5463 L 0.761993,-42.512 L 0.884323,-42.4715 L 1.00453,-42.4252
 L 1.12233,-42.373 L 1.23741,-42.315 L 1.34952,-42.2515 L 1.45836,-42.1826 L 1.56371,-42.1084 L 1.66527,-42.0291
 L 1.76283,-41.945 L 1.85614,-41.8562 L 1.94499,-41.7628 L 2.02914,-41.6653 L 2.10841,-41.5637 L 2.1826,-41.4584
 L 2.25153,-41.3495 L 2.31503,-41.2374 L 2.37297,-41.1223 L 2.42517,-41.0045 L 2.47154,-40.8843 L 2.51196,-40.762
 L 2.54633,-40.6378 L 2.57455,-40.5121 L 2.59659,-40.3852 L 2.61235,-40.2573 L 2.62183,-40.1288 L 2.625,-40
 L 2.62183,-39.8712 L 2.61235,-39.7427 L 2.59659,-39.6148 L 2.57455,-39.4879 L 2.54633,-39.3622 L 2.51196,-39.238
 L 2.47154,-39.1157 L 2.42517,-38.9955 L 2.37297,-38.8777 L 2.31503,-38.7626 L 2.25153,-38.6505 L 2.1826,-38.5416
 L 2.10841,-38.4363 L 2.02914,-38.3347 L 1.94499,-38.2372 L 1.85614,-38.1438 L 1.76283,-38.055 L 1.66527,-37.9708
 L 1.56371,-37.8916 L 1.45836,-37.8174 L 1.34952,-37.7485 L 1.23741,-37.685 L 1.12233,-37.627 L 1.00453,-37.5748
 L 0.884323,-37.5284 L 0.761993,-37.488 L 0.637817,-37.4537 L 0.5121,-37.4254 L 0.385162,-37.4034 L 0.257294,-37.3876
 L 0.128799,-37.3782 L 0,-37.375 z
M -139.129,-37.3782 L -139.257,-37.3876 L -139.385,-37.4034 L -139.512,-37.4254 L -139.638,-37.4537 L -139.762,-37.488
 L -139.884,-37.5284 L -140.005,-37.5748 L -140.122,-37.627 L -140.237,-37.685 L -140.35,-37.7485 L -140.458,-37.8174
 L -140.564,-37.8916 L -140.665,-37.9708 L -140.763,-38.055 L -140.856,-38.1438 L -140.945,-38.2372 L -141.029,-38.3347
 L -141.108,-38.4363 L -141.183,-38.5416 L -141.252,-38.6505 L -141.315,-38.7626 L -141.373,-38.8777 L -141.425,-38.9955
 L -141.472,-39.1157 L -141.512,-39.238 L -141.546,-39.3622 L -141.575,-39.4879 L -141.597,-39.6148 L -141.612,-39.7427
 L -141.622,-39.8712 L -141.625,-40 L -141.622,-40.1288 L -141.612,-40.2573 L -141.597,-40.3852 L -141.575,-40.5121
 L -141.546,-40.6378 L -141.512,-40.762 L -141.472,-40.8843 L -141.425,-41.0045 L -141.373,-41.1223 L -141.315,-41.2374
 L -141.252,-41.3495 L -141.183,-41.4584 L -141.108,-41.5637 L -141.029,-41.6653 L -140.945,-41.7628 L -140.856,-41.8562
 L -140.763,-41.945 L -140.665,-42.0291 L -140.564,-42.1084 L -140.458,-42.1826 L -140.35,-42.2515 L -140.237,-42.315
 L -140.122,-42.373 L -140.005,-42.4252 L -139.884,-42.4715 L -139.762,-42.512 L -139.638,-42.5463 L -139.512,-42.5746
 L -139.385,-42.5966 L -139.257,-42.6124 L -139.129,-42.6218 L -139,-42.625 L -138.871,-42.6218 L -138.743,-42.6124
 L -138.615,-42.5966 L -138.488,-42.5746 L -138.362,-42.5463 L -138.238,-42.512 L -138.116,-42.4715 L -137.995,-42.4252
 L -137.878,-42.373 L -137.763,-42.315 L -137.65,-42.2515 L -137.542,-42.1826 L -137.436,-42.1084 L -137.335,-42.0291
 L -137.237,-41.945 L -137.144,-41.8562 L -137.055,-41.7628 L -136.971,-41.6653 L -136.892,-41.5637 L -136.817,-41.4584
 L -136.748,-41.3495 L -136.685,-41.2374 L -136.627,-41.1223 L -136.575,-41.0045 L -136.528,-40.8843 L -136.488,-40.762
 L -136.454,-40.6378 L -136.425,-40.5121 L -136.403,-40.3852 L -136.388,-40.2573 L -136.378,-40.1288 L -136.375,-40
 L -136.378,-39.8712 L -136.388,-39.7427 L -136.403,-39.6148 L -136.425,-39.4879 L -136.454,-39.3622 L -136.488,-39.238
 L -136.528,-39.1157 L -136.575,-38.9955 L -136.627,-38.8777 L -136.685,-38.7626 L -136.748,-38.6505 L -136.817,-38.5416
 L -136.892,-38.4363 L -136.971,-38.3347 L -137.055,-38.2372 L -137.144,-38.1438 L -137.237,-38.055 L -137.335,-37.9708
 L -137.436,-37.8916 L -137.542,-37.8174 L -137.65,-37.7485 L -137.763,-37.685 L -137.878,-37.627 L -137.995,-37.5748
 L -138.116,-37.5284 L -138.238,-37.488 L -138.362,-37.4537 L -138.488,-37.4254 L -138.615,-37.4034 L -138.743,-37.3876
 L -138.871,-37.3782 L -139,-37.375 z
M 138.871,-37.3782 L 138.743,-37.3876 L 138.615,-37.4034 L 138.488,-37.4254 L 138.362,-37.4537 L 138.238,-37.488
 L 138.116,-37.5284 L 137.995,-37.5748 L 137.878,-37.627 L 137.763,-37.685 L 137.65,-37.7485 L 137.542,-37.8174
 L 137.436,-37.8916 L 137.335,-37.9708 L 137.237,-38.055 L 137.144,-38.1438 L 137.055,-38.2372 L 136.971,-38.3347
 L 136.892,-38.4363 L 136.817,-38.5416 L 136.748,-38.6505 L 136.685,-38.7626 L 136.627,-38.8777 L 136.575,-38.9955
 L 136.528,-39.1157 L 136.488,-39.238 L 136.454,-39.3622 L 136.425,-39.4879 L 136.403,-39.6148 L 136.388,-39.7427
 L 136.378,-39.8712 L 136.375,-40 L 136.378,-40.1288 L 136.388,-40.2573 L 136.403,-40.3852 L 136.425,-40.5121
 L 136.454,-40.6378 L 136.488,-40.762 L 136.528,-40.8843 L 136.575,-41.0045 L 136.627,-41.1223 L 136.685,-41.2374
 L 136.748,-41.3495 L 136.817,-41.4584 L 136.892,-41.5637 L 136.971,-41.6653 L 137.055,-41.7628 L 137.144,-41.8562
 L 137.237,-41.945 L 137.335,-42.0291 L 137.436,-42.1084 L 137.542,-42.1826 L 137.65,-42.2515 L 137.763,-42.315
 L 137.878,-42.373 L 137.995,-42.4252 L 138.116,-42.4715 L 138.238,-42.512 L 138.362,-42.5463 L 138.488,-42.5746
 L 138.615,-42.5966 L 138.743,-42.6124 L 138.871,-42.6218 L 139,-42.625 L 139.129,-42.6218 L 139.257,-42.6124
 L 139.385,-42.5966 L 139.512,-42.5746 L 139.638,-42.5463 L 139.762,-42.512 L 139.884,-42.4715 L 140.005,-42.4252
 L 140.122,-42.373 L 140.237,-42.315 L 140.35,-42.2515 L 140.458,-42.1826 L 140.564,-42.1084 L 140.665,-42.0291
 L 140.763,-41.945 L 140.856,-41.8562 L 140.945,-41.7628 L 141.029,-41.6653 L 141.108,-41.5637 L 141.183,-41.4584
 L 141.252,-41.3495 L 141.315,-41.2374 L 141.373,-41.1223 L 141.425,-41.0045 L 141.472,-40.8843 L 141.512,-40.762
 L 141.546,-40.6378 L 141.575,-40.5121 L 141.597,-40.3852 L 141.612,-40.2573 L 141.622,-40.1288 L 141.625,-40
 L 141.622,-39.8712 L 141.612,-39.7427 L 141.597,-39.6148 L 141.575,-39.4879 L 141.546,-39.3622 L 141.512,-39.238
 L 141.472,-39.1157 L 141.425,-38.9955 L 141.373,-38.8777 L 141.315,-38.7626 L 141.252,-38.6505 L 141.183,-38.5416
 L 141.108,-38.4363 L 141.029,-38.3347 L 140.945,-38.2372 L 140.856,-38.1438 L 140.763,-38.055 L 140.665,-37.9708
 L 140.564,-37.8916 L 140.458,-37.8174 L 140.35,-37.7485 L 140.237,-37.685 L 140.122,-37.627 L 140.005,-37.5748
 L 139.884,-37.5284 L 139.762,-37.488 L 139.638,-37.4537 L 139.512,-37.4254 L 139.385,-37.4034 L 139.257,-37.3876
 L 139.129,-37.3782 L 139,-37.375 z
M 18.7497,-19.4197 L 18.5056,-19.4783 L 18.2736,-19.5744 L 18.0595,-19.7056 L 17.8686,-19.8686 L 17.7056,-20.0595
 L 17.5744,-20.2736 L 17.4783,-20.5056 L 17.4197,-20.7497 L 17.4,-21 L 17.4197,-21.2503 L 17.4783,-21.4944
 L 17.5744,-21.7264 L 17.7056,-21.9404 L 17.8686,-22.1314 L 18.0595,-22.2944 L 18.2736,-22.4256 L 18.5056,-22.5217
 L 18.7497,-22.5803 L 19,-22.6 L 19.2503,-22.5803 L 19.4944,-22.5217 L 19.7264,-22.4256 L 19.9404,-22.2944
 L 20.1314,-22.1314 L 20.2944,-21.9404 L 20.4256,-21.7264 L 20.5217,-21.4944 L 20.5803,-21.2503 L 20.6,-21
 L 20.5803,-20.7497 L 20.5217,-20.5056 L 20.4256,-20.2736 L 20.2944,-20.0595 L 20.1314,-19.8686 L 19.9404,-19.7056
 L 19.7264,-19.5744 L 19.4944,-19.4783 L 19.2503,-19.4197 L 19,-19.4 z
M -64.2503,-19.4197 L -64.4944,-19.4783 L -64.7264,-19.5744 L -64.9404,-19.7056 L -65.1314,-19.8686 L -65.2944,-20.0595
 L -65.4256,-20.2736 L -65.5217,-20.5056 L -65.5803,-20.7497 L -65.6,-21 L -65.5803,-21.2503 L -65.5217,-21.4944
 L -65.4256,-21.7264 L -65.2944,-21.9404 L -65.1314,-22.1314 L -64.9404,-22.2944 L -64.7264,-22.4256 L -64.4944,-22.5217
 L -64.2503,-22.5803 L -64,-22.6 L -63.7497,-22.5803 L -63.5056,-22.5217 L -63.2736,-22.4256 L -63.0595,-22.2944
 L -62.8686,-22.1314 L -62.7056,-21.9404 L -62.5744,-21.7264 L -62.4783,-21.4944 L -62.4197,-21.2503 L -62.4,-21
 L -62.4197,-20.7497 L -62.4783,-20.5056 L -62.5744,-20.2736 L -62.7056,-20.0595 L -62.8686,-19.8686 L -63.0595,-19.7056
 L -63.2736,-19.5744 L -63.5056,-19.4783 L -63.7497,-19.4197 L -64,-19.4 z
M 63.7497,-19.4197 L 63.5056,-19.4783 L 63.2736,-19.5744 L 63.0595,-19.7056 L 62.8686,-19.8686 L 62.7056,-20.0595
 L 62.5744,-20.2736 L 62.4783,-20.5056 L 62.4197,-20.7497 L 62.4,-21 L 62.4197,-21.2503 L 62.4783,-21.4944
 L 62.5744,-21.7264 L 62.7056,-21.9404 L 62.8686,-22.1314 L 63.0595,-22.2944 L 63.2736,-22.4256 L 63.5056,-22.5217
 L 63.7497,-22.5803 L 64,-22.6 L 64.2503,-22.5803 L 64.4944,-22.5217 L 64.7264,-22.4256 L 64.9404,-22.2944
 L 65.1314,-22.1314 L 65.2944,-21.9404 L 65.4256,-21.7264 L 65.5217,-21.4944 L 65.5803,-21.2503 L 65.6,-21
 L 65.5803,-20.7497 L 65.5217,-20.5056 L 65.4256,-20.2736 L 65.2944,-20.0595 L 65.1314,-19.8686 L 64.9404,-19.7056
 L 64.7264,-19.5744 L 64.4944,-19.4783 L 64.2503,-19.4197 L 64,-19.4 z
M -30.2503,-19.4197 L -30.4944,-19.4783 L -30.7264,-19.5744 L -30.9404,-19.7056 L -31.1314,-19.8686 L -31.2944,-20.0595
 L -31.4256,-20.2736 L -31.5217,-20.5056 L -31.5803,-20.7497 L -31.6,-21 L -31.5803,-21.2503 L -31.5217,-21.4944
 L -31.4256,-21.7264 L -31.2944,-21.9404 L -31.1314,-22.1314 L -30.9404,-22.2944 L -30.7264,-22.4256 L -30.4944,-22.5217
 L -30.2503,-22.5803 L -30,-22.6 L -29.7497,-22.5803 L -29.5056,-22.5217 L -29.2736,-22.4256 L -29.0595,-22.2944
 L -28.8686,-22.1314 L -28.7056,-21.9404 L -28.5744,-21.7264 L -28.4783,-21.4944 L -28.4197,-21.2503 L -28.4,-21
 L -28.4197,-20.7497 L -28.4783,-20.5056 L -28.5744,-20.2736 L -28.7056,-20.0595 L -28.8686,-19.8686 L -29.0595,-19.7056
 L -29.2736,-19.5744 L -29.5056,-19.4783 L -29.7497,-19.4197 L -30,-19.4 z
M 18.7497,22.5803 L 18.5056,22.5217 L 18.2736,22.4256 L 18.0595,22.2944 L 17.8686,22.1314 L 17.7056,21.9404
 L 17.5744,21.7264 L 17.4783,21.4944 L 17.4197,21.2503 L 17.4,21 L 17.4197,20.7497 L 17.4783,20.5056
 L 17.5744,20.2736 L 17.7056,20.0595 L 17.8686,19.8686 L 18.0595,19.7056 L 18.2736,19.5744 L 18.5056,19.4783
 L 18.7497,19.4197 L 19,19.4 L 19.2503,19.4197 L 19.4944,19.4783 L 19.7264,19.5744 L 19.9404,19.7056
 L 20.1314,19.8686 L 20.2944,20.0595 L 20.4256,20.2736 L 20.5217,20.5056 L 20.5803,20.7497 L 20.6,21
 L 20.5803,21.2503 L 20.5217,21.4944 L 20.4256,21.7264 L 20.2944,21.9404 L 20.1314,22.1314 L 19.9404,22.2944
 L 19.7264,22.4256 L 19.4944,22.5217 L 19.2503,22.5803 L 19,22.6 z
M -30.2503,22.5803 L -30.4944,22.5217 L -30.7264,22.4256 L -30.9404,22.2944 L -31.1314,22.1314 L -31.2944,21.9404
 L -31.4256,21.7264 L -31.5217,21.4944 L -31.5803,21.2503 L -31.6,21 L -31.5803,20.7497 L -31.5217,20.5056
 L -31.4256,20.2736 L -31.2944,20.0595 L -31.1314,19.8686 L -30.9404,19.7056 L -30.7264,19.5744 L -30.4944,19.4783
 L -30.2503,19.4197 L -30,19.4 L -29.7497,19.4197 L -29.5056,19.4783 L -29.2736,19.5744 L -29.0595,19.7056
 L -28.8686,19.8686 L -28.7056,20.0595 L -28.5744,20.2736 L -28.4783,20.5056 L -28.4197,20.7497 L -28.4,21
 L -28.4197,21.2503 L -28.4783,21.4944 L -28.5744,21.7264 L -28.7056,21.9404 L -28.8686,22.1314 L -29.0595,22.2944
 L -29.2736,22.4256 L -29.5056,22.5217 L -29.7497,22.5803 L -30,22.6 z
M -64.2503,22.5803 L -64.4944,22.5217 L -64.7264,22.4256 L -64.9404,22.2944 L -65.1314,22.1314 L -65.2944,21.9404
 L -65.4256,21.7264 L -65.5217,21.4944 L -65.5803,21.2503 L -65.6,21 L -65.5803,20.7497 L -65.5217,20.5056
 L -65.4256,20.2736 L -65.2944,20.0595 L -65.1314,19.8686 L -64.9404,19.7056 L -64.7264,19.5744 L -64.4944,19.4783
 L -64.2503,19.4197 L -64,19.4 L -63.7497,19.4197 L -63.5056,19.4783 L -63.2736,19.5744 L -63.0595,19.7056
 L -62.8686,19.8686 L -62.7056,20.0595 L -62.5744,20.2736 L -62.4783,20.5056 L -62.4197,20.7497 L -62.4,21
 L -62.4197,21.2503 L -62.4783,21.4944 L -62.5744,21.7264 L -62.7056,21.9404 L -62.8686,22.1314 L -63.0595,22.2944
 L -63.2736,22.4256 L -63.5056,22.5217 L -63.7497,22.5803 L -64,22.6 z
M 63.7497,22.5803 L 63.5056,22.5217 L 63.2736,22.4256 L 63.0595,22.2944 L 62.8686,22.1314 L 62.7056,21.9404
 L 62.5744,21.7264 L 62.4783,21.4944 L 62.4197,21.2503 L 62.4,21 L 62.4197,20.7497 L 62.4783,20.5056
 L 62.5744,20.2736 L 62.7056,20.0595 L 62.8686,19.8686 L 63.0595,19.7056 L 63.2736,19.5744 L 63.5056,19.4783
 L 63.7497,19.4197 L 64,19.4 L 64.2503,19.4197 L 64.4944,19.4783 L 64.7264,19.5744 L 64.9404,19.7056
 L 65.1314,19.8686 L 65.2944,20.0595 L 65.4256,20.2736 L 65.5217,20.5056 L 65.5803,20.7497 L 65.6,21
 L 65.5803,21.2503 L 65.5217,21.4944 L 65.4256,21.7264 L 65.2944,21.9404 L 65.1314,22.1314 L 64.9404,22.2944
 L 64.7264,22.4256 L 64.4944,22.5217 L 64.2503,22.5803 L 64,22.6 z
M -139.129,42.6218 L -139.257,42.6124 L -139.385,42.5966 L -139.512,42.5746 L -139.638,42.5463 L -139.762,42.512
 L -139.884,42.4715 L -140.005,42.4252 L -140.122,42.373 L -140.237,42.315 L -140.35,42.2515 L -140.458,42.1826
 L -140.564,42.1084 L -140.665,42.0291 L -140.763,41.945 L -140.856,41.8562 L -140.945,41.7628 L -141.029,41.6653
 L -141.108,41.5637 L -141.183,41.4584 L -141.252,41.3495 L -141.315,41.2374 L -141.373,41.1223 L -141.425,41.0045
 L -141.472,40.8843 L -141.512,40.762 L -141.546,40.6378 L -141.575,40.5121 L -141.597,40.3852 L -141.612,40.2573
 L -141.622,40.1288 L -141.625,40 L -141.622,39.8712 L -141.612,39.7427 L -141.597,39.6148 L -141.575,39.4879
 L -141.546,39.3622 L -141.512,39.238 L -141.472,39.1157 L -141.425,38.9955 L -141.373,38.8777 L -141.315,38.7626
 L -141.252,38.6505 L -141.183,38.5416 L -141.108,38.4363 L -141.029,38.3347 L -140.945,38.2372 L -140.856,38.1438
 L -140.763,38.055 L -140.665,37.9708 L -140.564,37.8916 L -140.458,37.8174 L -140.35,37.7485 L -140.237,37.685
 L -140.122,37.627 L -140.005,37.5748 L -139.884,37.5284 L -139.762,37.488 L -139.638,37.4537 L -139.512,37.4254
 L -139.385,37.4034 L -139.257,37.3876 L -139.129,37.3782 L -139,37.375 L -138.871,37.3782 L -138.743,37.3876
 L -138.615,37.4034 L -138.488,37.4254 L -138.362,37.4537 L -138.238,37.488 L -138.116,37.5284 L -137.995,37.5748
 L -137.878,37.627 L -137.763,37.685 L -137.65,37.7485 L -137.542,37.8174 L -137.436,37.8916 L -137.335,37.9708
 L -137.237,38.055 L -137.144,38.1438 L -137.055,38.2372 L -136.971,38.3347 L -136.892,38.4363 L -136.817,38.5416
 L -136.748,38.6505 L -136.685,38.7626 L -136.627,38.8777 L -136.575,38.9955 L -136.528,39.1157 L -136.488,39.238
 L -136.454,39.3622 L -136.425,39.4879 L -136.403,39.6148 L -136.388,39.7427 L -136.378,39.8712 L -136.375,40
 L -136.378,40.1288 L -136.388,40.2573 L -136.403,40.3852 L -136.425,40.5121 L -136.454,40.6378 L -136.488,40.762
 L -136.528,40.8843 L -136.575,41.0045 L -136.627,41.1223 L -136.685,41.2374 L -136.748,41.3495 L -136.817,41.4584
 L -136.892,41.5637 L -136.971,41.6653 L -137.055,41.7628 L -137.144,41.8562 L -137.237,41.945 L -137.335,42.0291
 L -137.436,42.1084 L -137.542,42.1826 L -137.65,42.2515 L -137.763,42.315 L -137.878,42.373 L -137.995,42.4252
 L -138.116,42.4715 L -138.238,42.512 L -138.362,42.5463 L -138.488,42.5746 L -138.615,42.5966 L -138.743,42.6124
 L -138.871,42.6218 L -139,42.625 z
M 138.871,42.6218 L 138.743,42.6124 L 138.615,42.5966 L 138.488,42.5746 L 138.362,42.5463 L 138.238,42.512
 L 138.116,42.4715 L 137.995,42.4252 L 137.878,42.373 L 137.763,42.315 L 137.65,42.2515 L 137.542,42.1826
 L 137.436,42.1084 L 137.335,42.0291 L 137.237,41.945 L 137.144,41.8562 L 137.055,41.7628 L 136.971,41.6653
 L 136.892,41.5637 L 136.817,41.4584 L 136.748,41.3495 L 136.685,41.2374 L 136.627,41.1223 L 136.575,41.0045
 L 136.528,40.8843 L 136.488,40.762 L 136.454,40.6378 L 136.425,40.5121 L 136.403,40.3852 L 136.388,40.2573
 L 136.378,40.1288 L 136.375,40 L 136.378,39.8712 L 136.388,39.7427 L 136.403,39.6148 L 136.425,39.4879
 L 136.454,39.3622 L 136.488,39.238 L 136.528,39.1157 L 136.575,38.9955 L 136.627,38.8777 L 136.685,38.7626
 L 136.748,38.6505 L 136.817,38.5416 L 136.892,38.4363 L 136.971,38.3347 L 137.055,38.2372 L 137.144,38.1438
 L 137.237,38.055 L 137.335,37.9708 L 137.436,37.8916 L 137.542,37.8174 L 137.65,37.7485 L 137.763,37.685
 L 137.878,37.627 L 137.995,37.5748 L 138.116,37.5284 L 138.238,37.488 L 138.362,37.4537 L 138.488,37.4254
 L 138.615,37.4034 L 138.743,37.3876 L 138.871,37.3782 L 139,37.375 L 139.129,37.3782 L 139.257,37.3876
 L 139.385,37.4034 L 139.512,37.4254 L 139.638,37.4537 L 139.762,37.488 L 139.884,37.5284 L 140.005,37.5748
 L 140.122,37.627 L 140.237,37.685 L 140.35,37.7485 L 140.458,37.8174 L 140.564,37.8916 L 140.665,37.9708
 L 140.763,38.055 L 140.856,38.1438 L 140.945,38.2372 L 141.029,38.3347 L 141.108,38.4363 L 141.183,38.5416
 L 141.252,38.6505 L 141.315,38.7626 L 141.373,38.8777 L 141.425,38.9955 L 141.472,39.1157 L 141.512,39.238
 L 141.546,39.3622 L 141.575,39.4879 L 141.597,39.6148 L 141.612,39.7427 L 141.622,39.8712 L 141.625,40
 L 141.622,40.1288 L 141.612,40.2573 L 141.597,40.3852 L 141.575,40.5121 L 141.546,40.6378 L 141.512,40.762
 L 141.472,40.8843 L 141.425,41.0045 L 141.373,41.1223 L 141.315,41.2374 L 141.252,41.3495 L 141.183,41.4584
 L 141.108,41.5637 L 141.029,41.6653 L 140.945,41.7628 L 140.856,41.8562 L 140.763,41.945 L 140.665,42.0291
 L 140.564,42.1084 L 140.458,42.1826 L 140.35,42.2515 L 140.237,42.315 L 140.122,42.373 L 140.005,42.4252
 L 139.884,42.4715 L 139.762,42.512 L 139.638,42.5463 L 139.512,42.5746 L 139.385,42.5966 L 139.257,42.6124
 L 139.129,42.6218 L 139,42.625 z
M -0.128799,42.6218 L -0.257294,42.6124 L -0.385162,42.5966 L -0.5121,42.5746 L -0.637817,42.5463 L -0.761993,42.512
 L -0.884323,42.4715 L -1.00453,42.4252 L -1.12233,42.373 L -1.23741,42.315 L -1.34952,42.2515 L -1.45836,42.1826
 L -1.56371,42.1084 L -1.66527,42.0291 L -1.76283,41.945 L -1.85614,41.8562 L -1.94499,41.7628 L -2.02914,41.6653
 L -2.10841,41.5637 L -2.1826,41.4584 L -2.25153,41.3495 L -2.31503,41.2374 L -2.37297,41.1223 L -2.42517,41.0045
 L -2.47154,40.8843 L -2.51196,40.762 L -2.54633,40.6378 L -2.57455,40.5121 L -2.59659,40.3852 L -2.61235,40.2573
 L -2.62183,40.1288 L -2.625,40 L -2.62183,39.8712 L -2.61235,39.7427 L -2.59659,39.6148 L -2.57455,39.4879
 L -2.54633,39.3622 L -2.51196,39.238 L -2.47154,39.1157 L -2.42517,38.9955 L -2.37297,38.8777 L -2.31503,38.7626
 L -2.25153,38.6505 L -2.1826,38.5416 L -2.10841,38.4363 L -2.02914,38.3347 L -1.94499,38.2372 L -1.85614,38.1438
 L -1.76283,38.055 L -1.66527,37.9708 L -1.56371,37.8916 L -1.45836,37.8174 L -1.34952,37.7485 L -1.23741,37.685
 L -1.12233,37.627 L -1.00453,37.5748 L -0.884323,37.5284 L -0.761993,37.488 L -0.637817,37.4537 L -0.5121,37.4254
 L -0.385162,37.4034 L -0.257294,37.3876 L -0.128799,37.3782 L 0,37.375 L 0.128799,37.3782 L 0.257294,37.3876
 L 0.385162,37.4034 L 0.5121,37.4254 L 0.637817,37.4537 L 0.761993,37.488 L 0.884323,37.5284 L 1.00453,37.5748
 L 1.12233,37.627 L 1.23741,37.685 L 1.34952,37.7485 L 1.45836,37.8174 L 1.56371,37.8916 L 1.66527,37.9708
 L 1.76283,38.055 L 1.85614,38.1438 L 1.94499,38.2372 L 2.02914,38.3347 L 2.10841,38.4363 L 2.1826,38.5416
 L 2.25153,38.6505 L 2.31503,38.7626 L 2.37297,38.8777 L 2.42517,38.9955 L 2.47154,39.1157 L 2.51196,39.238
 L 2.54633,39.3622 L 2.57455,39.4879 L 2.59659,39.6148 L 2.61235,39.7427 L 2.62183,39.8712 L 2.625,40
 L 2.62183,40.1288 L 2.61235,40.2573 L 2.59659,40.3852 L 2.57455,40.5121 L 2.54633,40.6378 L 2.51196,40.762
 L 2.47154,40.8843 L 2.42517,41.0045 L 2.37297,41.1223 L 2.31503,41.2374 L 2.25153,41.3495 L 2.1826,41.4584
 L 2.10841,41.5637 L 2.02914,41.6653 L 1.94499,41.7628 L 1.85614,41.8562 L 1.76283,41.945 L 1.66527,42.0291
 L 1.56371,42.1084 L 1.45836,42.1826 L 1.34952,42.2515 L 1.23741,42.315 L 1.12233,42.373 L 1.00453,42.4252
 L 0.884323,42.4715 L 0.761993,42.512 L 0.637817,42.5463 L 0.5121,42.5746 L 0.385162,42.5966 L 0.257294,42.6124
 L 0.128799,42.6218 L 0,42.625 z
" stroke="black" fill="lightgray" stroke-width="0.5"/>
</svg>
