<?xml version="1.0" standalone="no"?>
<!DOCTYPE svg PUBLIC "-//W3C//DTD SVG 1.1//EN" "http://www.w3.org/Graphics/SVG/1.1/DTD/svg11.dtd">
<svg width="62mm" height="76mm" viewBox="-31 -38 62 76" xmlns="http://www.w3.org/2000/svg" version="1.1">
<title>OpenSCAD Model</title>
<path d="
M 0.309006,-35.5489 L 0.5,-35.634 L 0.669128,-35.7569 L 0.809006,-35.9122 L 0.913544,-36.0933 L 0.978134,-36.2921
 L 1,-36.5 L 0.978134,-36.7079 L 0.913544,-36.9067 L 0.809006,-37.0878 L 0.669128,-37.2431 L 0.5,-37.366
 L 0.309006,-37.451 L 0.104523,-37.4945 L -0.104523,-37.4945 L -0.309006,-37.451 L -0.5,-37.366 L -0.669128,-37.2431
 L -0.809006,-37.0878 L -0.913544,-36.9067 L -0.978134,-36.7079 L -1,-36.5 L -0.978134,-36.2921 L -0.913544,-36.0933
 L -0.809006,-35.9122 L -0.669128,-35.7569 L -0.5,-35.634 L -0.309006,-35.5489 L -0.104523,-35.5055 L 0.104523,-35.5055
 z
M 16.7376,-31.6427 L 16.9286,-31.7277 L 17.0977,-31.8506 L 17.2376,-32.0059 L 17.3421,-32.187 L 17.4067,-32.3858
 L 17.4286,-32.5937 L 17.4067,-32.8016 L 17.3421,-33.0005 L 17.2376,-33.1815 L 17.0977,-33.3369 L 16.9286,-33.4597
 L 16.7376,-33.5448 L 16.5331,-33.5882 L 16.3241,-33.5882 L 16.1196,-33.5448 L 15.9286,-33.4597 L 15.7595,-33.3369
 L 15.6196,-33.1815 L 15.515,-33.0005 L 15.4504,-32.8016 L 15.4286,-32.5937 L 15.4504,-32.3858 L 15.515,-32.187
 L 15.6196,-32.0059 L 15.7595,-31.8506 L 15.9286,-31.7277 L 16.1196,-31.6427 L 16.3241,-31.5992 L 16.5331,-31.5992
 z
M -16.1196,-31.6427 L -15.9286,-31.7277 L -15.7595,-31.8506 L -15.6196,-32.0059 L -15.515,-32.187 L -15.4504,-32.3858
 L -15.4286,-32.5937 L -15.4504,-32.8016 L -15.515,-33.0005 L -15.6196,-33.1815 L -15.7595,-33.3369 L -15.9286,-33.4597
 L -16.1196,-33.5448 L -16.3241,-33.5882 L -16.5331,-33.5882 L -16.7376,-33.5448 L -16.9286,-33.4597 L -17.0977,-33.3369
 L -17.2376,-33.1815 L -17.3421,-33.0005 L -17.4067,-32.8016 L -17.4286,-32.5937 L -17.4067,-32.3858 L -17.3421,-32.187
 L -17.2376,-32.0059 L -17.0977,-31.8506 L -16.9286,-31.7277 L -16.7376,-31.6427 L -16.5331,-31.5992 L -16.3241,-31.5992
 z
M -29.0318,-20.76 L -28.8408,-20.845 L -28.6716,-20.9679 L -28.5318,-21.1232 L -28.4272,-21.3043 L -28.3626,-21.5031
 L -28.3408,-21.711 L -28.3626,-21.9189 L -28.4272,-22.1178 L -28.5318,-22.2988 L -28.6716,-22.4542 L -28.8408,-22.5771
 L -29.0318,-22.6621 L -29.2362,-22.7056 L -29.4453,-22.7056 L -29.6498,-22.6621 L -29.8408,-22.5771 L -30.0099,-22.4542
 L -30.1498,-22.2988 L -30.2543,-22.1178 L -30.3189,-21.9189 L -30.3408,-21.711 L -30.3189,-21.5031 L -30.2543,-21.3043
 L -30.1498,-21.1232 L -30.0099,-20.9679 L -29.8408,-20.845 L -29.6498,-20.76 L -29.4453,-20.7165 L -29.2362,-20.7165
 z
M 29.6498,-20.76 L 29.8408,-20.845 L 30.0099,-20.9679 L 30.1498,-21.1232 L 30.2543,-21.3043 L 30.3189,-21.5031
 L 30.3408,-21.711 L 30.3189,-21.9189 L 30.2543,-22.1178 L 30.1498,-22.2988 L 30.0099,-22.4542 L 29.8408,-22.5771
 L 29.6498,-22.6621 L 29.4453,-22.7056 L 29.2362,-22.7056 L 29.0318,-22.6621 L 28.8408,-22.5771 L 28.6716,-22.4542
 L 28.5318,-22.2988 L 28.4272,-22.1178 L 28.3626,-21.9189 L 28.3408,-21.711 L 28.3626,-21.5031 L 28.4272,-21.3043
 L 28.5318,-21.1232 L 28.6716,-20.9679 L 28.8408,-20.845 L 29.0318,-20.76 L 29.2362,-20.7165 L 29.4453,-20.7165
 z
M 29.6498,22.6621 L 29.8408,22.5771 L 30.0099,22.4542 L 30.1498,22.2988 L 30.2543,22.1178 L 30.3189,21.9189
 L 30.3408,21.711 L 30.3189,21.5031 L 30.2543,21.3043 L 30.1498,21.1232 L 30.0099,20.9679 L 29.8408,20.845
 L 29.6498,20.76 L 29.4453,20.7165 L 29.2362,20.7165 L 29.0318,20.76 L 28.8408,20.845 L 28.6716,20.9679
 L 28.5318,21.1232 L 28.4272,21.3043 L 28.3626,21.5031 L 28.3408,21.711 L 28.3626,21.9189 L 28.4272,22.1178
 L 28.5318,22.2988 L 28.6716,22.4542 L 28.8408,22.5771 L 29.0318,22.6621 L 29.2362,22.7056 L 29.4453,22.7056
 z
M -29.0318,22.6621 L -28.8408,22.5771 L -28.6716,22.4542 L -28.5318,22.2988 L -28.4272,22.1178 L -28.3626,21.9189
 L -28.3408,21.711 L -28.3626,21.5031 L -28.4272,21.3043 L -28.5318,21.1232 L -28.6716,20.9679 L -28.8408,20.845
 L -29.0318,20.76 L -29.2362,20.7165 L -29.4453,20.7165 L -29.6498,20.76 L -29.8408,20.845 L -30.0099,20.9679
 L -30.1498,21.1232 L -30.2543,21.3043 L -30.3189,21.5031 L -30.3408,21.711 L -30.3189,21.9189 L -30.2543,22.1178
 L -30.1498,22.2988 L -30.0099,22.4542 L -29.8408,22.5771 L -29.6498,22.6621 L -29.4453,22.7056 L -29.2362,22.7056
 z
M 16.7376,33.5448 L 16.9286,33.4597 L 17.0977,33.3369 L 17.2376,33.1815 L 17.3421,33.0005 L 17.4067,32.8016
 L 17.4286,32.5937 L 17.4067,32.3858 L 17.3421,32.187 L 17.2376,32.0059 L 17.0977,31.8506 L 16.9286,31.7277
 L 16.7376,31.6427 L 16.5331,31.5992 L 16.3241,31.5992 L 16.1196,31.6427 L 15.9286,31.7277 L 15.7595,31.8506
 L 15.6196,32.0059 L 15.515,32.187 L 15.4504,32.3858 L 15.4286,32.5937 L 15.4504,32.8016 L 15.515,33.0005
 L 15.6196,33.1815 L 15.7595,33.3369 L 15.9286,33.4597 L 16.1196,33.5448 L 16.3241,33.5882 L 16.5331,33.5882
 z
M -16.1196,33.5448 L -15.9286,33.4597 L -15.7595,33.3369 L -15.6196,33.1815 L -15.515,33.0005 L -15.4504,32.8016
 L -15.4286,32.5937 L -15.4504,32.3858 L -15.515,32.187 L -15.6196,32.0059 L -15.7595,31.8506 L -15.9286,31.7277
 L -16.1196,31.6427 L -16.3241,31.5992 L -16.5331,31.5992 L -16.7376,31.6427 L -16.9286,31.7277 L -17.0977,31.8506
 L -17.2376,32.0059 L -17.3421,32.187 L -17.4067,32.3858 L -17.4286,32.5937 L -17.4067,32.8016 L -17.3421,33.0005
 L -17.2376,33.1815 L -17.0977,33.3369 L -16.9286,33.4597 L -16.7376,33.5448 L -16.5331,33.5882 L -16.3241,33.5882
 z
M 0.309006,37.451 L 0.5,37.366 L 0.669128,37.2431 L 0.809006,37.0878 L 0.913544,36.9067 L 0.978134,36.7079
 L 1,36.5 L 0.978134,36.2921 L 0.913544,36.0933 L 0.809006,35.9122 L 0.669128,35.7569 L 0.5,35.634
 L 0.309006,35.5489 L 0.104523,35.5055 L -0.104523,35.5055 L -0.309006,35.5489 L -0.5,35.634 L -0.669128,35.7569
 L -0.809006,35.9122 L -0.913544,36.0933 L -0.978134,36.2921 L -1,36.5 L -0.978134,36.7079 L -0.913544,36.9067
 L -0.809006,37.0878 L -0.669128,37.2431 L -0.5,37.366 L -0.309006,37.451 L -0.104523,37.4945 L 0.104523,37.4945
 z
" stroke="black" fill="lightgray" stroke-width="0.5"/>
</svg>
